<svg width="1095" height="247" viewBox="0 0 1095 247" fill="none" xmlns="http://www.w3.org/2000/svg">
<path d="M113.156 35.9503V0H0V247H113.156V211.05C89.9763 211.05 67.7453 201.825 51.3548 185.407C34.964 168.988 25.7558 146.72 25.7558 123.5C25.7558 100.28 34.964 78.0115 51.3548 61.5931C67.7453 45.1743 89.9763 35.9503 113.156 35.9503Z" fill="#101828"/>
<path d="M113.156 35.9503V211.05C136.337 211.05 158.568 201.825 174.958 185.407C191.349 168.988 200.557 146.72 200.557 123.5C200.557 100.28 191.349 78.0115 174.958 61.5931C158.568 45.1743 136.337 35.9503 113.156 35.9503Z" fill="#101828"/>
<path d="M264.06 57.9436H289.393V180.175H264.06V57.9436Z" fill="#101828"/>
<path d="M303.58 138.303C303.58 129.509 306.187 120.913 311.07 113.605C315.952 106.296 322.891 100.604 331.007 97.2504C339.123 93.8973 348.05 93.0328 356.657 94.7668C365.263 96.5009 373.162 100.756 379.352 106.992C385.542 113.228 389.745 121.165 391.427 129.796C393.108 138.427 392.194 147.364 388.8 155.475C385.405 163.584 379.684 170.503 372.36 175.351C365.036 180.201 356.44 182.762 347.661 182.712C341.838 182.758 336.065 181.639 330.68 179.419C325.294 177.201 320.405 173.927 316.299 169.791C312.194 165.655 308.954 160.739 306.77 155.332C304.586 149.925 303.502 144.136 303.58 138.303ZM367.083 138.303C366.983 134.512 365.77 130.834 363.595 127.73C361.419 124.626 358.379 122.233 354.853 120.851C351.327 119.469 347.473 119.158 343.773 119.959C340.072 120.759 336.689 122.635 334.046 125.352C331.404 128.068 329.62 131.504 328.917 135.231C328.215 138.958 328.624 142.809 330.095 146.304C331.566 149.798 334.033 152.781 337.188 154.878C340.342 156.976 344.043 158.095 347.83 158.097C350.408 158.148 352.968 157.665 355.351 156.678C357.734 155.693 359.888 154.225 361.679 152.368C363.47 150.51 364.86 148.302 365.761 145.882C366.662 143.462 367.054 140.882 366.914 138.303H367.083Z" fill="#101828"/>
<path d="M491.977 96.4316V176.03C491.977 204.113 470.022 216.04 447.813 216.04C439.979 216.684 432.121 215.125 425.125 211.539C418.128 207.952 412.269 202.48 408.208 195.739L429.572 183.389C431.303 186.886 434.057 189.77 437.467 191.659C440.877 193.548 444.78 194.352 448.657 193.963C451.127 194.267 453.633 194.022 455.997 193.244C458.361 192.465 460.524 191.173 462.331 189.459C464.139 187.745 465.546 185.654 466.452 183.332C467.358 181.01 467.741 178.517 467.573 176.03V168.332C464.625 171.913 460.884 174.755 456.648 176.635C452.411 178.514 447.796 179.379 443.168 179.16C431.97 179.16 421.231 174.703 413.312 166.772C405.394 158.84 400.945 148.082 400.945 136.865C400.945 125.648 405.394 114.891 413.312 106.959C421.231 99.0268 431.97 94.5706 443.168 94.5706C447.796 94.3515 452.411 95.216 456.648 97.0956C460.884 98.9752 464.625 101.817 467.573 105.398V96.9391L491.977 96.4316ZM467.573 136.611C467.741 132.565 466.697 128.559 464.575 125.111C462.453 121.664 459.35 118.931 455.664 117.263C451.979 115.596 447.881 115.072 443.895 115.757C439.91 116.442 436.22 118.305 433.301 121.108C430.381 123.91 428.366 127.524 427.513 131.484C426.66 135.443 427.009 139.567 428.514 143.326C430.021 147.085 432.615 150.307 435.963 152.578C439.312 154.848 443.263 156.063 447.306 156.067C449.945 156.257 452.594 155.891 455.082 154.993C457.57 154.093 459.843 152.682 461.753 150.848C463.663 149.015 465.168 146.8 466.17 144.348C467.172 141.896 467.65 139.26 467.573 136.611Z" fill="#101828"/>
<path d="M506.249 138.303C506.249 129.516 508.851 120.927 513.726 113.622C518.601 106.317 525.53 100.625 533.636 97.2664C541.742 93.9074 550.66 93.0328 559.262 94.7533C567.865 96.4738 575.764 100.712 581.961 106.931C588.158 113.151 592.373 121.071 594.074 129.691C595.776 138.312 594.886 147.243 591.517 155.356C588.149 163.47 582.453 170.4 575.152 175.269C567.85 180.139 559.27 182.729 550.498 182.712C544.664 182.769 538.877 181.658 533.478 179.446C528.078 177.233 523.174 173.962 519.053 169.826C514.931 165.69 511.676 160.771 509.477 155.358C507.279 149.945 506.181 144.147 506.249 138.303ZM569.751 138.303C569.652 134.508 568.436 130.827 566.257 127.721C564.078 124.616 561.032 122.223 557.502 120.843C553.971 119.463 550.113 119.158 546.41 119.966C542.707 120.773 539.324 122.658 536.685 125.382C534.046 128.107 532.269 131.551 531.576 135.283C530.883 139.015 531.304 142.869 532.788 146.362C534.272 149.855 536.752 152.832 539.918 154.92C543.083 157.007 546.792 158.112 550.582 158.097C553.16 158.148 555.721 157.665 558.104 156.678C560.487 155.693 562.641 154.225 564.432 152.368C566.223 150.51 567.612 148.302 568.513 145.882C569.414 143.462 569.807 140.882 569.667 138.303H569.751Z" fill="#101828"/>
<path d="M606.485 74.0155C606.485 71.0379 607.367 68.1264 609.018 65.6505C610.67 63.1742 613.018 61.2444 615.764 60.1047C618.511 58.9651 621.533 58.667 624.449 59.2479C627.364 59.8289 630.043 61.2629 632.145 63.3687C634.247 65.4745 635.678 68.1577 636.259 71.0777C636.839 73.9985 636.541 77.026 635.403 79.7777C634.266 82.5285 632.339 84.8801 629.867 86.5346C627.395 88.1892 624.489 89.0723 621.516 89.0723C617.543 89.0283 613.746 87.4279 610.936 84.6136C608.127 81.7993 606.529 77.9954 606.485 74.0155ZM608.934 96.4315H634.267V180.175H608.934V96.4315Z" fill="#101828"/>
<path d="M742.695 138.303C742.979 143.872 742.16 149.443 740.286 154.695C738.413 159.946 735.521 164.774 731.778 168.901C728.034 173.029 723.512 176.374 718.473 178.744C713.434 181.114 707.976 182.463 702.415 182.712C697.695 183.027 692.965 182.27 688.579 180.498C684.192 178.725 680.262 175.983 677.081 172.477V213.841H651.748V96.4315H677.081V104.298C680.266 100.802 684.2 98.0734 688.587 96.3157C692.974 94.5571 697.701 93.8161 702.415 94.1476C707.954 94.3972 713.39 95.7379 718.412 98.092C723.434 100.446 727.944 103.769 731.684 107.869C735.425 111.969 738.322 116.767 740.211 121.989C742.1 127.211 742.945 132.754 742.695 138.303ZM717.361 138.303C717.262 134.374 716.006 130.562 713.753 127.345C711.5 124.129 708.349 121.648 704.695 120.218C701.041 118.787 697.046 118.469 693.212 119.302C689.378 120.135 685.875 122.084 683.142 124.903C680.408 127.723 678.566 131.287 677.848 135.151C677.128 139.014 677.563 143.005 679.098 146.622C680.634 150.238 683.2 153.32 686.476 155.482C689.753 157.644 693.593 158.789 697.517 158.774C700.204 158.888 702.885 158.432 705.384 157.435C707.883 156.439 710.144 154.925 712.018 152.992C713.892 151.059 715.336 148.751 716.257 146.22C717.178 143.688 717.554 140.991 717.361 138.303Z" fill="#101828"/>
<path d="M819.793 155.052C819.793 174.338 802.904 182.543 785.002 182.543C777.7 183.201 770.369 181.651 763.957 178.092C757.544 174.533 752.344 169.13 749.028 162.58L770.815 150.23C771.678 153.248 773.549 155.878 776.117 157.68C778.684 159.482 781.79 160.345 784.917 160.127C790.913 160.127 793.953 158.266 793.953 154.883C793.953 145.662 752.828 150.569 752.828 121.554C752.828 103.283 768.197 94.1476 785.593 94.1476C792.205 93.8507 798.775 95.3539 804.602 98.4964C810.431 101.639 815.301 106.304 818.695 111.996L796.909 123.5C795.946 121.318 794.374 119.462 792.381 118.156C790.387 116.85 788.059 116.15 785.677 116.141C781.286 116.141 778.669 117.833 778.669 120.793C778.669 130.436 819.793 124.092 819.793 155.052Z" fill="#101828"/>
<path d="M911.585 96.4315V180.175H886.252V172.308C883.372 175.79 879.716 178.545 875.586 180.353C871.448 182.161 866.947 182.969 862.438 182.712C845.549 182.712 831.109 170.616 831.109 148.031V96.4315H856.443V144.224C856.24 146.222 856.476 148.24 857.135 150.138C857.794 152.035 858.849 153.768 860.234 155.216C861.627 156.663 863.316 157.792 865.183 158.523C867.049 159.254 869.05 159.57 871.051 159.45C880.172 159.45 886.589 154.037 886.589 142.533V96.4315H911.585Z" fill="#101828"/>
<path d="M1055.14 128.745V180.175H1029.81V130.944C1029.81 122.485 1025.84 117.24 1017.82 117.24C1009.79 117.24 1004.73 123.077 1004.73 132.974V180.175H979.395V130.944C979.395 122.485 975.426 117.24 967.403 117.24C959.381 117.24 954.314 123.077 954.314 132.974V180.175H928.981V96.4316H954.314V104.129C956.941 100.729 960.361 98.0354 964.287 96.2928C968.206 94.5503 972.504 93.8127 976.777 94.1477C981.058 93.9235 985.331 94.8201 989.165 96.7479C992.999 98.6757 996.267 101.569 998.648 105.144C1001.43 101.409 1005.12 98.4414 1009.36 96.5187C1013.59 94.5951 1018.25 93.7797 1022.88 94.1477C1042.64 94.1477 1055.14 107.851 1055.14 128.745Z" fill="#101828"/>
<path d="M1076.42 95.924C1086.68 95.924 1095 87.592 1095 77.3144C1095 67.0369 1086.68 58.7049 1076.42 58.7049C1066.16 58.7049 1057.84 67.0369 1057.84 77.3144C1057.84 87.592 1066.16 95.924 1076.42 95.924Z" fill="#101828"/>
</svg>
