<svg width="1190" height="234" viewBox="0 0 1190 234" fill="none" xmlns="http://www.w3.org/2000/svg">
<path d="M178.489 102.596C175.165 105.939 172.619 109.973 171.033 114.411C169.447 118.849 168.861 123.583 169.314 128.274L169.156 128.116C169.623 133.638 168.877 139.194 166.973 144.399C165.069 149.603 162.051 154.329 158.131 158.248C154.21 162.166 149.482 165.182 144.274 167.085C139.067 168.988 133.507 169.733 127.983 169.267L128.141 169.424C121.533 168.81 114.895 170.247 109.133 173.54C103.372 176.834 98.7672 181.823 95.9471 187.828C93.1271 193.833 92.228 200.561 93.3736 207.096C94.52 213.629 97.654 219.651 102.349 224.34C107.045 229.028 113.072 232.155 119.611 233.294C126.15 234.434 132.88 233.529 138.886 230.705C144.892 227.88 149.879 223.274 153.169 217.513C156.459 211.752 157.892 205.117 157.271 198.512L157.437 198.67C156.971 193.149 157.716 187.592 159.62 182.387C161.524 177.183 164.542 172.457 168.462 168.538C172.383 164.62 177.112 161.604 182.319 159.701C187.526 157.798 193.085 157.053 198.611 157.519L198.444 157.361C203.842 157.846 209.276 156.962 214.241 154.789C219.206 152.617 223.542 149.227 226.848 144.934C230.153 140.641 232.321 135.582 233.149 130.229C233.978 124.876 233.441 119.4 231.589 114.308C229.736 109.218 226.627 104.676 222.551 101.106C218.475 97.535 213.563 95.0506 208.271 93.8829C202.978 92.7151 197.476 92.901 192.274 94.4238C187.073 95.9474 182.34 98.758 178.515 102.596H178.489Z" fill="#101828"/>
<path d="M113.782 148.753L113.615 148.595C118.311 149.067 123.053 148.491 127.499 146.908C131.944 145.325 135.983 142.775 139.321 139.441C142.659 136.107 145.215 132.072 146.801 127.63C148.389 123.188 148.969 118.45 148.499 113.756L148.666 113.914C148.199 108.392 148.945 102.835 150.848 97.6306C152.753 92.4267 155.771 87.7006 159.691 83.7819C163.612 79.8641 168.34 76.8475 173.547 74.9451C178.755 73.0415 184.314 72.297 189.839 72.7631L189.673 72.6053C196.282 73.226 202.921 71.7931 208.685 68.5033C214.451 65.2136 219.059 60.2265 221.884 54.2225C224.708 48.2185 225.611 41.4898 224.469 34.9542C223.327 28.4186 220.195 22.3943 215.501 17.7029C210.807 13.0116 204.78 9.88153 198.24 8.73993C191.701 7.59825 184.969 8.50043 178.962 11.3235C172.954 14.1464 167.965 18.7529 164.673 24.5144C161.381 30.2759 159.948 36.912 160.569 43.5175L160.411 43.3509C160.879 48.8729 160.135 54.4305 158.231 59.6354C156.328 64.8404 153.31 69.5673 149.39 73.4863C145.469 77.4041 140.739 80.4208 135.532 82.3231C130.323 84.2255 124.763 84.9689 119.238 84.5016L119.396 84.6682C114.7 84.1957 109.958 84.7717 105.512 86.3549C101.067 87.9373 97.0287 90.4884 93.6903 93.8224C90.3518 97.1563 87.7967 101.191 86.2091 105.633C84.6224 110.075 84.0426 114.813 84.5118 119.507L84.354 119.349C84.8188 124.87 84.0724 130.427 82.1681 135.631C80.263 140.834 77.2456 145.56 73.3256 149.478C69.4053 153.395 64.6772 156.411 59.4708 158.315C54.2644 160.218 48.7052 160.965 43.1809 160.5L43.3387 160.658C36.7296 160.037 30.0899 161.469 24.3253 164.76C18.5607 168.05 13.9517 173.036 11.1272 179.04C8.30267 185.045 7.39992 191.773 8.54222 198.309C9.68453 204.844 12.8163 210.869 17.5101 215.56C22.2041 220.252 28.2316 223.381 34.7708 224.523C41.31 225.664 48.0423 224.762 54.0496 221.939C60.0568 219.116 65.0466 214.51 68.3382 208.749C71.6301 202.987 73.0634 196.351 72.4424 189.745L72.609 189.903C72.1424 184.381 72.8879 178.825 74.7922 173.62C76.6956 168.416 79.7139 163.69 83.6338 159.771C87.5546 155.854 92.2833 152.837 97.49 150.935C102.698 149.031 108.257 148.286 113.782 148.753Z" fill="#101828"/>
<path d="M54.996 131.158C58.3205 127.816 60.8658 123.782 62.4503 119.343C64.0348 114.904 64.6193 110.17 64.1621 105.48L64.3287 105.638C63.862 100.115 64.6073 94.5561 66.5125 89.3505C68.4177 84.1448 71.4371 79.4179 75.3597 75.4992C79.2823 71.5806 84.0127 68.565 89.2221 66.6631C94.4314 64.761 99.9934 64.0185 105.519 64.4874L105.353 64.3295C111.959 64.9482 118.597 63.5149 124.359 60.2253C130.121 56.9358 134.726 51.95 137.55 45.9479C140.373 39.9457 141.274 33.2194 140.132 26.6863C138.99 20.1531 135.859 14.1311 131.167 9.44144C126.475 4.7518 120.449 1.6228 113.913 0.481207C107.376 -0.660476 100.646 0.240912 94.6411 3.0622C88.6353 5.88349 83.647 10.4875 80.3559 16.2463C77.064 22.0051 75.6299 28.6385 76.2491 35.2417L76.0913 35.0839C76.5579 40.6056 75.8123 46.1626 73.9081 51.3668C72.0038 56.571 68.9866 61.2972 65.0661 65.2156C61.1457 69.1339 56.4169 72.1499 51.2098 74.0527C46.0027 75.9559 40.4429 76.7011 34.9182 76.2347L35.0761 76.3925C29.6779 75.9086 24.2447 76.7949 19.2803 78.9681C14.3158 81.1414 9.98056 84.5323 6.67628 88.8262C3.37199 93.1193 1.20562 98.1776 0.377776 103.531C-0.449984 108.884 0.0876169 114.36 1.94076 119.45C3.7939 124.541 6.90275 129.081 10.9791 132.651C15.0554 136.221 19.9674 138.705 25.26 139.873C30.5524 141.04 36.0541 140.853 41.2553 139.33C46.4564 137.806 51.1886 134.996 55.0134 131.158H54.996Z" fill="#101828"/>
<path d="M326.709 43.7191H352.76V170.424H326.709V43.7191Z" fill="#101828"/>
<path d="M367.513 127.038C367.477 117.932 370.145 109.02 375.18 101.432C380.215 93.8434 387.39 87.9189 395.797 84.4096C404.203 80.8994 413.462 79.9623 422.402 81.7165C431.342 83.4707 439.56 87.8365 446.015 94.2625C452.47 100.688 456.871 108.883 458.662 117.811C460.453 126.739 459.553 135.998 456.075 144.414C452.597 152.829 446.698 160.025 439.126 165.087C431.553 170.149 422.648 172.852 413.537 172.852C407.49 172.921 401.489 171.784 395.886 169.508C390.283 167.233 385.19 163.864 380.905 159.599C376.62 155.333 373.229 150.256 370.93 144.666C368.63 139.075 367.468 133.082 367.513 127.038ZM433.509 127.038C433.401 123.113 432.137 119.307 429.876 116.096C427.615 112.885 424.457 110.412 420.798 108.985C417.138 107.558 413.139 107.241 409.299 108.073C405.46 108.906 401.952 110.851 399.212 113.666C396.474 116.48 394.625 120.039 393.899 123.898C393.173 127.756 393.6 131.743 395.129 135.361C396.658 138.978 399.219 142.064 402.493 144.233C405.767 146.403 409.609 147.56 413.537 147.56C416.227 147.632 418.903 147.146 421.397 146.132C423.89 145.119 426.146 143.6 428.022 141.673C429.898 139.744 431.355 137.448 432.299 134.929C433.244 132.411 433.656 129.724 433.509 127.038Z" fill="#101828"/>
<path d="M563.388 83.6425V166.049C563.388 195.207 540.635 207.533 517.54 207.533C509.409 208.141 501.266 206.499 494.006 202.789C486.747 199.077 480.65 193.439 476.384 186.493L498.611 173.65C500.404 177.271 503.261 180.257 506.798 182.211C510.337 184.165 514.387 184.992 518.408 184.582C520.978 184.938 523.595 184.712 526.066 183.92C528.536 183.128 530.798 181.791 532.682 180.009C534.566 178.226 536.025 176.043 536.951 173.62C537.876 171.198 538.245 168.599 538.03 166.014V158.08C534.979 161.81 531.097 164.774 526.693 166.734C522.289 168.693 517.487 169.594 512.672 169.363C501.214 169.002 490.347 164.199 482.371 155.971C474.394 147.744 469.934 136.736 469.934 125.28C469.934 113.824 474.394 102.816 482.371 94.5886C490.347 86.3602 501.214 81.5578 512.672 81.1966C517.487 80.966 522.289 81.8664 526.693 83.8257C531.097 85.7851 534.979 88.7491 538.03 92.4793V83.625L563.388 83.6425ZM538.039 125.293C538.214 121.097 537.128 116.944 534.922 113.37C532.716 109.795 529.49 106.963 525.659 105.237C521.829 103.51 517.57 102.969 513.429 103.682C509.288 104.396 505.455 106.332 502.424 109.241C499.393 112.15 497.303 115.899 496.422 120.005C495.541 124.111 495.909 128.388 497.481 132.283C499.052 136.178 501.754 139.514 505.238 141.862C508.722 144.21 512.829 145.462 517.031 145.456C519.769 145.647 522.515 145.263 525.095 144.329C527.674 143.394 530.029 141.929 532.008 140.031C533.987 138.131 535.547 135.838 536.585 133.3C537.624 130.762 538.119 128.034 538.039 125.293Z" fill="#101828"/>
<path d="M578.142 127.038C578.106 117.932 580.773 109.02 585.809 101.432C590.843 93.8434 598.018 87.9189 606.425 84.4096C614.832 80.8994 624.091 79.9623 633.03 81.7165C641.97 83.4707 650.188 87.8365 656.643 94.2625C663.098 100.688 667.5 108.883 669.291 117.811C671.082 126.739 670.181 135.998 666.703 144.414C663.225 152.829 657.326 160.025 649.754 165.087C642.181 170.149 633.276 172.852 624.165 172.852C618.118 172.921 612.117 171.784 606.514 169.508C600.911 167.233 595.819 163.864 591.534 159.599C587.248 155.333 583.857 150.256 581.558 144.666C579.258 139.075 578.097 133.082 578.142 127.038ZM644.138 127.038C644.029 123.113 642.765 119.307 640.505 116.096C638.243 112.885 635.086 110.412 631.426 108.985C627.766 107.558 623.766 107.241 619.928 108.073C616.088 108.906 612.58 110.851 609.841 113.666C607.102 116.48 605.253 120.039 604.527 123.898C603.801 127.756 604.229 131.743 605.758 135.361C607.286 138.978 609.848 142.064 613.121 144.233C616.395 146.403 620.236 147.56 624.165 147.56C626.855 147.632 629.532 147.146 632.024 146.132C634.518 145.119 636.774 143.6 638.65 141.673C640.527 139.744 641.983 137.448 642.927 134.929C643.872 132.411 644.284 129.724 644.138 127.038Z" fill="#101828"/>
<path d="M682.337 60.3845C682.337 57.2947 683.254 54.2743 684.971 51.7054C686.689 49.1363 689.131 47.1339 691.987 45.9515C694.843 44.7691 697.986 44.4597 701.018 45.0625C704.049 45.6653 706.835 47.1532 709.021 49.338C711.207 51.5228 712.695 54.3063 713.299 57.3368C713.901 60.3672 713.592 63.5083 712.409 66.3629C711.226 69.2175 709.223 71.6573 706.652 73.3741C704.082 75.0906 701.06 76.0067 697.968 76.0067C693.836 75.9655 689.883 74.3069 686.961 71.3857C684.039 68.4648 682.379 64.515 682.337 60.3845ZM684.969 83.6425H711.029V170.432H684.934L684.969 83.6425Z" fill="#101828"/>
<path d="M823.513 127.038C823.814 132.774 822.978 138.512 821.052 143.924C819.127 149.336 816.15 154.313 812.292 158.571C808.435 162.828 803.773 166.282 798.576 168.734C793.378 171.184 787.748 172.584 782.007 172.852C777.179 173.115 772.354 172.302 767.88 170.47C763.406 168.638 759.396 165.834 756.14 162.262V205.14H730.089V83.6425H756.14V91.7955C759.397 88.2257 763.408 85.4239 767.882 83.5943C772.356 81.7638 777.18 80.9511 782.007 81.2141C787.749 81.4815 793.381 82.8807 798.58 85.3318C803.779 87.783 808.441 91.2371 812.298 95.4959C816.156 99.7548 819.133 104.734 821.057 110.148C822.982 115.56 823.817 121.301 823.513 127.038ZM797.462 127.038C797.361 122.976 796.062 119.034 793.73 115.706C791.398 112.378 788.136 109.811 784.352 108.328C780.567 106.844 776.428 106.508 772.454 107.363C768.48 108.218 764.847 110.226 762.008 113.134C759.17 116.044 757.253 119.724 756.498 123.718C755.743 127.71 756.182 131.835 757.762 135.58C759.341 139.324 761.991 142.519 765.378 144.765C768.766 147.011 772.74 148.21 776.806 148.209C779.597 148.333 782.382 147.866 784.981 146.839C787.578 145.812 789.929 144.247 791.879 142.249C793.83 140.249 795.335 137.861 796.297 135.24C797.26 132.618 797.657 129.823 797.462 127.038Z" fill="#101828"/>
<path d="M903.904 144.387C903.904 164.348 886.545 172.852 867.792 172.852C860.213 173.538 852.606 171.937 845.949 168.254C839.292 164.572 833.895 158.979 830.452 152.198L853.021 139.355C853.934 142.489 855.895 145.216 858.576 147.079C861.257 148.943 864.502 149.831 867.757 149.594C874.002 149.594 877.133 147.683 877.133 144.22C877.133 134.665 834.408 139.705 834.408 109.68C834.408 90.7523 850.389 81.2141 868.45 81.2141C875.239 80.9994 881.957 82.6089 887.913 85.8745C893.869 89.141 898.843 93.9433 902.307 99.7819L880.08 111.757C879.107 109.484 877.484 107.547 875.414 106.189C873.344 104.832 870.923 104.113 868.45 104.121C863.932 104.121 861.152 105.875 861.152 108.978C861.187 118.876 903.904 112.274 903.904 144.387Z" fill="#101828"/>
<path d="M999.065 83.6425V170.432H973.014V162.271C970.005 165.872 966.19 168.71 961.874 170.551C957.558 172.392 952.874 173.183 948.19 172.861C930.648 172.861 915.736 160.368 915.736 136.918V83.6425H941.787V133.104C941.568 135.171 941.805 137.261 942.48 139.228C943.147 141.195 944.243 142.992 945.682 144.494C947.12 145.995 948.866 147.166 950.804 147.924C952.734 148.682 954.813 149.01 956.892 148.884C966.444 148.884 973.04 143.335 973.04 131.009V83.6688L999.065 83.6425Z" fill="#101828"/>
<path d="M1148.44 117.14V170.424H1122.39V119.393C1122.39 110.714 1118.22 105.165 1109.89 105.165C1101.21 105.165 1096.34 111.24 1096.34 121.479V170.424H1070.3V119.393C1070.3 110.714 1066.13 105.165 1057.79 105.165C1049.11 105.165 1044.25 111.24 1044.25 121.479V170.424H1018.2V83.6337H1044.25V91.6114C1046.95 88.0723 1050.49 85.2652 1054.55 83.4479C1058.62 81.6297 1063.08 80.8591 1067.52 81.2054C1071.97 80.9871 1076.41 81.9277 1080.4 83.9344C1084.38 85.9402 1087.78 88.9455 1090.26 92.6546C1093.15 88.7736 1096.97 85.6878 1101.37 83.6855C1105.78 81.6831 1110.62 80.8302 1115.44 81.2054C1135.38 81.2141 1148.44 95.4424 1148.44 117.14Z" fill="#101828"/>
<path d="M1170.48 83.1077C1181.15 83.1077 1189.81 74.4568 1189.81 63.786C1189.81 53.1149 1181.15 44.4643 1170.48 44.4643C1159.8 44.4643 1151.14 53.1149 1151.14 63.786C1151.14 74.4568 1159.8 83.1077 1170.48 83.1077Z" fill="#101828"/>
</svg>
