<svg width="1099" height="251" viewBox="0 0 1099 251" fill="none" xmlns="http://www.w3.org/2000/svg">
<path d="M318.19 70.6809H345.94V182.883H318.19V70.6809ZM356.947 140.518C356.947 112.768 373.967 96.2109 400.237 96.2109C426.507 96.2109 443.527 112.768 443.527 140.518C443.527 168.268 426.877 184.918 400.237 184.918C373.597 184.918 356.947 168.731 356.947 140.518ZM415.685 140.518C415.685 125.256 409.672 116.283 400.237 116.283C390.802 116.283 384.882 125.533 384.882 140.518C384.882 155.503 390.71 164.568 400.237 164.568C409.765 164.568 415.685 156.058 415.685 140.611V140.518ZM453.98 188.341H480.62C481.888 191.158 484.031 193.489 486.731 194.99C489.431 196.489 492.544 197.078 495.605 196.666C506.15 196.666 511.7 190.931 511.7 182.606V167.066H511.145C508.934 171.829 505.346 175.819 500.845 178.524C496.344 181.228 491.135 182.521 485.892 182.236C465.635 182.236 452.222 166.788 452.222 140.241C452.222 113.693 464.987 96.9509 486.262 96.9509C491.67 96.7391 497.013 98.1849 501.576 101.094C506.139 104.004 509.704 108.239 511.792 113.231V97.7834H539.542V181.958C539.542 202.216 521.69 214.796 495.327 214.796C470.815 214.796 455.552 203.788 453.98 188.433V188.341ZM511.792 140.426C511.792 126.921 505.595 118.411 495.79 118.411C485.985 118.411 479.972 126.828 479.972 140.426C479.972 154.023 485.892 161.701 495.79 161.701C505.687 161.701 511.792 154.208 511.792 140.518V140.426ZM549.995 140.426C549.995 112.676 567.015 96.1184 593.285 96.1184C619.555 96.1184 636.667 112.676 636.667 140.426C636.667 168.176 620.017 184.826 593.285 184.826C566.552 184.826 549.995 168.731 549.995 140.518V140.426ZM608.732 140.426C608.732 125.163 602.72 116.191 593.285 116.191C583.85 116.191 578.392 125.533 578.392 140.611C578.392 155.688 584.22 164.661 593.655 164.661C603.09 164.661 608.732 156.058 608.732 140.611V140.426ZM647.212 77.6184C647.139 74.8166 647.901 72.0564 649.398 69.6876C650.897 67.3187 653.064 65.4479 655.626 64.3124C658.188 63.1769 661.03 62.8277 663.791 63.3091C666.552 63.7907 669.108 65.0812 671.135 67.0169C673.162 68.9528 674.568 71.4468 675.176 74.183C675.784 76.9191 675.565 79.7737 674.548 82.3859C673.531 84.9972 671.762 87.2486 669.464 88.8535C667.167 90.4584 664.444 91.3454 661.642 91.4009C659.785 91.5286 657.921 91.2705 656.168 90.6434C654.414 90.0162 652.81 89.0339 651.455 87.7564C650.1 86.4799 649.024 84.9361 648.294 83.223C647.563 81.5108 647.195 79.6655 647.212 77.8034V77.6184ZM647.212 97.9684H674.962V182.883H647.212V97.9684ZM775.695 140.426C775.695 168.176 763.392 183.993 742.302 183.993C736.895 184.34 731.51 183.018 726.878 180.206C722.246 177.394 718.589 173.226 716.402 168.268H715.847V210.078H688.097V97.7834H715.847V112.953H716.402C718.487 107.913 722.074 103.638 726.675 100.708C731.276 97.7788 736.668 96.3377 742.117 96.5809C763.392 96.9509 776.065 112.861 776.065 140.611L775.695 140.426ZM747.945 140.426C747.945 126.921 741.747 118.318 732.035 118.318C722.322 118.318 716.125 127.013 716.032 140.426C715.94 153.838 722.322 162.441 732.035 162.441C741.747 162.441 747.945 154.023 747.945 140.611V140.426ZM823.332 96.0259C846.365 96.0259 860.332 106.941 860.98 124.423H835.727C835.727 118.411 830.732 114.618 823.055 114.618C815.377 114.618 811.955 117.578 811.955 121.926C811.955 126.273 815.007 127.661 821.205 128.956L838.965 132.563C855.892 136.171 863.107 143.016 863.107 155.873C863.107 173.448 847.105 184.733 823.517 184.733C799.93 184.733 784.482 173.448 783.28 156.151H810.012C810.845 162.441 815.84 166.141 823.98 166.141C832.12 166.141 835.82 163.458 835.82 159.018C835.82 154.578 833.23 153.653 826.57 152.266L810.567 148.843C794.01 145.421 785.315 136.633 785.315 123.683C785.5 107.033 800.392 96.2109 823.332 96.2109V96.0259ZM955.7 182.698H928.967V166.881H928.412C926.942 172.191 923.704 176.839 919.227 180.054C914.75 183.267 909.311 184.854 903.807 184.548C899.591 184.788 895.373 184.12 891.437 182.589C887.501 181.058 883.94 178.702 880.994 175.676C878.048 172.651 875.784 169.028 874.359 165.053C872.933 161.078 872.377 156.844 872.727 152.636V97.7834H900.477V146.253C900.477 156.336 905.657 161.701 914.26 161.701C916.276 161.705 918.274 161.278 920.115 160.448C921.947 159.619 923.593 158.405 924.925 156.89C926.248 155.374 927.247 153.591 927.83 151.662C928.412 149.731 928.588 147.698 928.32 145.698V97.7834H956.07L955.7 182.698ZM969.112 97.7834H995.937V114.156H996.492C997.963 108.916 1001.14 104.311 1005.5 101.064C1009.87 97.8177 1015.2 96.1101 1020.63 96.2109C1026.18 95.7679 1031.67 97.4245 1036.05 100.853C1040.41 104.281 1043.33 109.228 1044.22 114.711H1044.78C1046.45 109.169 1049.93 104.344 1054.66 100.995C1059.37 97.6456 1065.08 95.9621 1070.86 96.2109C1074.64 96.0842 1078.39 96.753 1081.89 98.1738C1085.39 99.5937 1088.55 101.735 1091.17 104.456C1093.78 107.179 1095.8 110.421 1097.09 113.972C1098.36 117.523 1098.89 121.305 1098.61 125.071V182.883H1070.86V132.471C1070.86 123.221 1066.7 118.966 1058.93 118.966C1057.2 118.951 1055.48 119.308 1053.9 120.013C1052.32 120.718 1050.9 121.754 1049.75 123.052C1048.61 124.349 1047.75 125.878 1047.24 127.534C1046.73 129.192 1046.59 130.938 1046.81 132.656V182.883H1020.45V132.101C1020.45 123.591 1016.29 118.966 1008.7 118.966C1006.95 118.967 1005.22 119.339 1003.62 120.057C1002.02 120.777 1000.59 121.827 999.434 123.138C998.268 124.448 997.399 125.991 996.872 127.665C996.354 129.337 996.187 131.101 996.4 132.841V182.883H968.65L969.112 97.7834Z" fill="#101828"/>
<path d="M240.582 75.7684C235.875 65.0048 229.645 54.9738 222.082 45.9834C210.904 32.2966 196.953 21.1323 181.148 13.2255C165.344 5.31876 148.044 0.848701 130.387 0.109533C112.731 -0.629634 95.1178 2.37884 78.7074 8.93709C62.2976 15.4952 47.4624 25.4544 35.1787 38.1591C22.8949 50.8637 13.4409 66.0259 7.43907 82.6477C1.43721 99.269 -0.976583 116.973 0.356712 134.595C1.6901 152.217 6.74014 169.356 15.1747 184.885C23.6092 200.415 35.2369 213.982 49.2924 224.693C58.3112 231.704 68.2767 237.403 78.8924 241.621C93.7756 247.72 109.705 250.862 125.79 250.871C158.992 250.798 190.81 237.563 214.271 214.068C237.731 190.573 250.918 158.735 250.942 125.533C250.966 108.407 247.439 91.462 240.582 75.7684ZM125.697 25.5408C140.142 25.5394 154.412 28.6964 167.507 34.7908C164.314 36.1707 160.957 37.1344 157.517 37.6584C146.201 39.2965 135.718 44.5503 127.632 52.6357C119.547 60.7211 114.293 71.2045 112.655 82.5209C111.936 88.8674 109.049 94.7716 104.482 99.2375C99.9158 103.703 93.9486 106.456 87.5874 107.033C76.2709 108.672 65.7876 113.926 57.7023 122.011C49.6169 130.096 44.363 140.579 42.725 151.896C42.1703 157.931 39.5956 163.602 35.4174 167.991C28.2085 152.759 24.97 135.95 26.0034 119.13C27.0369 102.309 32.3085 86.0239 41.3279 71.7882C50.3472 57.5532 62.8212 45.8309 77.589 37.7124C92.3567 29.594 108.938 25.3433 125.79 25.3558L125.697 25.5408ZM49.2 190.283C50.31 189.266 51.4199 188.341 52.5299 187.231C60.7592 179.253 66.0415 168.721 67.5149 157.353C68.1123 150.964 70.9651 144.995 75.5624 140.518C79.9866 135.914 85.9409 133.084 92.3049 132.563C103.621 130.925 114.104 125.671 122.19 117.586C130.275 109.5 135.529 99.0174 137.167 87.7009C137.568 81.0178 140.435 74.7213 145.215 70.0334C149.748 65.518 155.759 62.7916 162.142 62.3558C172.538 60.9255 182.234 56.3037 189.892 49.1284C198.612 56.3626 205.999 65.0652 211.722 74.8434C211.371 75.318 210.968 75.7527 210.52 76.1384C206.105 80.7838 200.158 83.6753 193.777 84.2784C182.449 85.8879 171.95 91.1327 163.859 99.2227C155.769 107.314 150.524 117.812 148.915 129.141C148.263 135.509 145.429 141.455 140.895 145.973C136.36 150.492 130.403 153.303 124.032 153.931C112.683 155.556 102.161 160.8 94.0281 168.882C85.8965 176.964 80.5879 187.454 78.8924 198.793C78.3947 203.314 76.8416 207.655 74.3599 211.466C64.8694 205.831 56.3695 198.675 49.2 190.283ZM125.697 225.988C116.311 225.999 106.97 224.691 97.9474 222.103C101.034 216.35 103.04 210.079 103.867 203.603C104.516 197.25 107.336 191.314 111.852 186.798C116.368 182.282 122.304 179.462 128.657 178.813C139.99 177.194 150.495 171.948 158.599 163.861C166.702 155.774 171.97 145.28 173.612 133.951C174.261 127.597 177.081 121.661 181.597 117.146C186.113 112.63 192.049 109.809 198.402 109.161C206.931 108.052 215.06 104.876 222.082 99.9109C225.982 114.691 226.444 130.169 223.433 145.155C220.422 160.142 214.017 174.241 204.712 186.369C195.406 198.496 183.447 208.331 169.75 215.119C156.053 221.906 140.984 225.467 125.697 225.526V225.988Z" fill="#101828"/>
</svg>
