<svg width="1098" height="287" viewBox="0 0 1098 287" fill="none" xmlns="http://www.w3.org/2000/svg">
<path d="M178.059 68.0758H195.447V189.1H247.613V206.489H178.059V68.0758ZM301.778 68.0758C312.096 68.0758 322.181 71.1353 330.76 76.8674C339.338 82.5996 346.025 90.7461 349.973 100.279C353.921 109.811 354.954 120.3 352.941 130.418C350.929 140.537 345.961 149.832 338.664 157.128C331.369 164.424 322.074 169.392 311.955 171.405C301.836 173.417 291.348 172.385 281.815 168.436C272.283 164.487 264.136 157.802 258.404 149.223C252.672 140.644 249.612 130.559 249.612 120.241C249.612 113.391 250.962 106.607 253.583 100.279C256.204 93.9491 260.047 88.1987 264.892 83.3551C269.735 78.5107 275.486 74.6678 281.815 72.0465C288.144 69.4251 294.928 68.0758 301.778 68.0758ZM301.778 155.019C308.656 155.019 315.38 152.979 321.099 149.158C326.818 145.336 331.276 139.904 333.908 133.55C336.54 127.195 337.229 120.203 335.887 113.456C334.545 106.711 331.233 100.514 326.369 95.6506C321.505 90.787 315.309 87.4745 308.563 86.1329C301.816 84.7905 294.824 85.4791 288.47 88.1117C282.115 90.7435 276.683 95.2011 272.862 100.92C269.041 106.639 267.001 113.363 267.001 120.241C267.047 129.435 270.731 138.236 277.248 144.72C283.765 151.204 292.585 154.845 301.778 154.845V155.019ZM267.001 189.274H336.555V206.663H267.001V189.274ZM489.574 206.663H472.186V194.23C460.972 202.079 447.619 206.297 433.931 206.315C422.259 206.393 410.755 203.533 400.479 197.997C390.202 192.46 381.485 184.428 375.129 174.638C368.773 164.848 364.982 153.616 364.107 141.976C363.232 130.337 365.3 118.664 370.121 108.035C374.942 97.4042 382.361 88.1578 391.693 81.1485C401.027 74.1383 411.974 69.5895 423.526 67.9219C435.079 66.2535 446.866 67.5202 457.799 71.6039C468.734 75.6876 478.466 82.457 486.097 91.2895L473.316 102.679C467.512 96.1896 460.177 91.2565 451.977 88.3291C443.778 85.4009 434.977 84.5714 426.376 85.9165C417.774 87.2615 409.646 90.7383 402.732 96.0288C395.818 101.32 390.338 108.256 386.792 116.208C383.246 124.159 381.746 132.871 382.43 141.55C383.113 150.23 385.957 158.6 390.704 165.898C395.451 173.196 401.948 179.19 409.605 183.334C417.262 187.478 425.834 189.639 434.54 189.622C441.765 189.637 448.908 188.091 455.481 185.089C462.053 182.088 467.9 177.703 472.621 172.233H425.672V154.845H489.748L489.574 206.663ZM553.564 68.4236C563.882 68.4236 573.967 71.4831 582.546 77.2152C591.124 82.9473 597.811 91.0939 601.759 100.626C605.707 110.159 606.74 120.647 604.728 130.766C602.715 140.885 597.747 150.18 590.451 157.476C583.155 164.772 573.86 169.74 563.741 171.752C553.623 173.765 543.134 172.732 533.601 168.784C524.069 164.835 515.922 158.149 510.19 149.571C504.458 140.992 501.399 130.907 501.399 120.589C501.353 113.695 502.674 106.86 505.286 100.479C507.898 94.0986 511.748 88.2987 516.615 83.416C521.482 78.5324 527.269 74.6626 533.641 72.0291C540.013 69.3964 546.844 68.0523 553.738 68.0758L553.564 68.4236ZM553.564 155.366C560.442 155.366 567.167 153.327 572.886 149.506C578.605 145.684 583.062 140.252 585.694 133.898C588.327 127.543 589.015 120.551 587.673 113.804C586.331 107.058 583.019 100.862 578.155 95.9983C573.292 91.1347 567.095 87.8222 560.349 86.4807C553.603 85.1383 546.611 85.8269 540.256 88.4595C533.901 91.0913 528.469 95.5488 524.648 101.268C520.827 106.987 518.787 113.711 518.787 120.589C518.925 129.752 522.673 138.491 529.218 144.905C535.762 151.319 544.574 154.892 553.738 154.845L553.564 155.366ZM518.787 189.622H588.341V207.01H518.787V189.622ZM624.249 68.0758H641.637V206.315H624.249V68.0758ZM665.721 68.0758H683.109C684.005 67.981 684.908 67.981 685.804 68.0758C693.087 67.2855 700.454 68.0384 707.426 70.2841C714.398 72.5307 720.82 76.2197 726.271 81.112C731.723 86.0043 736.083 91.9903 739.068 98.6796C742.054 105.369 743.596 112.612 743.596 119.937C743.596 127.262 742.054 134.505 739.068 141.195C736.083 147.884 731.723 153.87 726.271 158.762C720.82 163.655 714.398 167.344 707.426 169.59C700.454 171.836 693.087 172.589 685.804 171.799H683.109V206.576H665.721V68.0758ZM683.109 85.4643V154.236H685.804C690.716 154.89 695.71 154.487 700.453 153.054C705.196 151.621 709.578 149.191 713.305 145.927C717.033 142.663 720.02 138.64 722.066 134.128C724.113 129.616 725.172 124.718 725.172 119.763C725.172 114.808 724.113 109.911 722.066 105.399C720.02 100.886 717.033 96.8634 713.305 93.5996C709.578 90.3349 705.196 87.9057 700.453 86.472C695.71 85.0392 690.716 84.6366 685.804 85.2905C684.857 85.3887 683.924 85.593 683.022 85.899L683.109 85.4643ZM808.394 78.0742L795.526 88.2465C793.306 85.9269 790.47 84.2889 787.352 83.5255C784.233 82.7622 780.961 82.9047 777.921 83.9368C774.88 84.9679 772.198 86.8459 770.188 89.3498C768.177 91.8538 766.924 94.8794 766.574 98.071V99.4621C766.574 107.113 771.878 112.243 782.224 112.938C822.044 115.373 840.302 134.065 840.302 158.757V160.322C839.273 170.094 835.46 179.366 829.315 187.034C823.169 194.703 814.951 200.444 805.638 203.576C796.323 206.708 786.306 207.099 776.776 204.702C767.246 202.306 758.605 197.222 751.881 190.056L765.183 179.797C768.279 183.116 772.06 185.721 776.264 187.433C780.468 189.144 784.993 189.921 789.527 189.709C797.901 190.15 806.122 187.34 812.472 181.863C818.823 176.387 822.813 168.669 823.609 160.322V159.105C823.609 135.891 800.83 131.631 781.094 129.718C762.836 127.979 749.707 116.59 749.707 100.158V99.4621C750.351 90.907 754.255 82.9256 760.613 77.1665C766.971 71.4066 775.299 68.3079 783.876 68.5105C788.421 68.3766 792.943 69.1965 797.152 70.9188C801.36 72.6412 805.16 75.2268 808.307 78.5089L808.394 78.0742ZM908.378 188.665C930.026 188.665 947.154 165.278 947.154 136.5V66.9455H964.543V136.5C964.543 174.755 939.503 205.619 908.725 205.619C877.948 205.619 852.908 174.755 852.908 136.5V66.9455H870.297V136.5C869.601 165.713 886.729 189.1 908.291 189.1L908.378 188.665ZM1098 206.054H1080.61V119.981L1040.53 172.146L1000.45 119.981V206.315H983.062V68.0758L1040.44 143.629L1097.83 68.0758L1098 206.054Z" fill="#101828"/>
<path d="M94.5937 47.2969C94.5937 34.7529 89.611 22.7227 80.7411 13.8529C71.8712 4.98304 59.8408 0 47.2969 0C34.7529 0 22.7228 4.98304 13.8529 13.8529C4.98304 22.7227 0 34.7529 0 47.2969V190.318L38.9504 218.226V286.216H55.6434V218.226L94.5937 190.318V47.2969ZM77.9007 127.284L55.6434 149.542V128.675L77.9007 106.418V127.284ZM17.0408 106.418L39.2981 128.675V149.542L17.0408 127.284V106.418ZM77.9007 82.7695L47.2969 113.373L16.693 82.074V61.2077L47.2969 91.8115L77.9007 61.2077V82.7695ZM47.2969 16.693C54.0275 16.7227 60.5628 18.9581 65.9017 23.0566C71.2409 27.1551 75.089 32.8907 76.8574 39.3851L47.2969 68.8587L17.7363 39.3851C19.4399 32.8261 23.2604 27.0127 28.6053 22.8469C33.9502 18.681 40.5205 16.3956 47.2969 16.3452V16.693ZM16.693 181.884V150.585L38.9504 172.842V197.708L16.693 181.884ZM55.6434 197.795V172.842L77.9007 150.585V181.797L55.6434 197.795Z" fill="#101828"/>
</svg>
