<svg width="1062" height="213" viewBox="0 0 1062 213" fill="none" xmlns="http://www.w3.org/2000/svg">
<path d="M341.403 173.223C336.035 173.514 330.726 171.989 326.332 168.893C324.496 167.533 323.019 165.746 322.028 163.688C321.037 161.629 320.563 159.36 320.646 157.077V73.4636C320.603 73.11 320.64 72.7501 320.756 72.4128C320.872 72.0755 321.063 71.7697 321.316 71.5171C321.568 71.2646 321.874 71.0734 322.212 70.9579C322.549 70.8416 322.909 70.8046 323.263 70.8479H338.425C340.139 70.8479 340.952 71.7498 340.952 73.4636V150.583C340.952 154.01 342.486 155.724 345.644 155.724C346.984 155.779 348.323 155.628 349.615 155.273C351.42 155.273 352.413 155.814 352.503 157.438L353.857 168.713C353.922 169.042 353.915 169.38 353.839 169.707C353.762 170.032 353.616 170.339 353.41 170.603C353.205 170.868 352.945 171.087 352.649 171.243C352.352 171.399 352.026 171.49 351.691 171.509C348.37 172.606 344.9 173.184 341.403 173.223Z" fill="#101828"/>
<path d="M426.686 163.571C419.068 169.863 409.494 173.304 399.612 173.304C389.73 173.304 380.157 169.863 372.538 163.571C365.843 156.816 362.086 147.69 362.086 138.181C362.086 128.671 365.843 119.546 372.538 112.79C380.171 106.531 389.739 103.111 399.612 103.111C409.485 103.111 419.053 106.531 426.686 112.79C433.228 119.608 436.88 128.689 436.88 138.136C436.88 147.582 433.228 156.663 426.686 163.481V163.571ZM386.797 151.665C390.333 154.866 394.932 156.639 399.702 156.639C404.473 156.639 409.072 154.866 412.607 151.665C415.808 147.989 417.569 143.28 417.569 138.406C417.569 133.534 415.808 128.824 412.607 125.147C409.072 121.947 404.473 120.174 399.702 120.174C394.932 120.174 390.333 121.947 386.797 125.147C383.598 128.824 381.835 133.534 381.835 138.406C381.835 143.28 383.598 147.989 386.797 151.665Z" fill="#101828"/>
<path d="M520.362 105.394C522.076 105.394 522.889 106.296 522.889 108.009V172.681C523.047 177.047 522.229 181.392 520.496 185.401C518.763 189.411 516.159 192.985 512.871 195.862C505.574 202.082 496.19 205.304 486.61 204.882C477.957 205.186 469.418 202.825 462.153 198.117C459.05 196.082 456.399 193.429 454.366 190.326C452.332 187.222 450.959 183.734 450.33 180.078C450.33 178.274 450.33 177.462 452.767 177.462H467.928C468.572 177.484 469.196 177.692 469.724 178.06C470.253 178.428 470.664 178.94 470.907 179.537C471.89 182.276 473.85 184.557 476.412 185.941C479.533 187.551 483.008 188.357 486.519 188.286C488.638 188.402 490.759 188.095 492.758 187.382C494.757 186.67 496.593 185.566 498.161 184.137C499.593 182.641 500.707 180.871 501.436 178.933C502.165 176.996 502.494 174.93 502.403 172.862V167.179C496.974 171.17 490.367 173.233 483.631 173.042C478.917 173.214 474.217 172.432 469.812 170.742C465.408 169.052 461.391 166.491 458.001 163.211C451.495 156.484 447.859 147.493 447.859 138.136C447.859 128.779 451.495 119.788 458.001 113.061C461.407 109.81 465.43 107.273 469.831 105.6C474.233 103.927 478.925 103.151 483.631 103.319C490.562 103.136 497.347 105.333 502.854 109.543V108.1C502.812 107.754 502.849 107.403 502.96 107.073C503.071 106.744 503.254 106.443 503.496 106.192C503.737 105.941 504.033 105.748 504.358 105.626C504.685 105.503 505.034 105.455 505.381 105.484L520.362 105.394ZM485.346 156.987C487.671 157.059 489.984 156.62 492.12 155.7C494.256 154.781 496.165 153.403 497.71 151.665C500.711 147.793 502.339 143.033 502.339 138.136C502.339 133.238 500.711 128.479 497.71 124.606C496.17 122.892 494.273 121.535 492.153 120.631C490.033 119.727 487.74 119.299 485.436 119.374C483.085 119.3 480.745 119.738 478.579 120.657C476.413 121.576 474.473 122.954 472.892 124.696C469.568 128.401 467.82 133.254 468.019 138.226C467.856 143.149 469.566 147.951 472.802 151.665C474.387 153.403 476.328 154.778 478.493 155.696C480.658 156.615 482.995 157.055 485.346 156.987Z" fill="#101828"/>
<path d="M600.771 163.571C593.138 169.83 583.57 173.251 573.697 173.251C563.824 173.251 554.257 169.83 546.624 163.571C540.076 156.738 536.421 147.642 536.421 138.181C536.421 128.72 540.076 119.623 546.624 112.79C554.264 106.547 563.829 103.137 573.697 103.137C583.566 103.137 593.131 106.547 600.771 112.79C607.313 119.608 610.966 128.689 610.966 138.136C610.966 147.582 607.313 156.663 600.771 163.481V163.571ZM560.792 151.665C562.522 153.311 564.562 154.596 566.793 155.447C569.024 156.299 571.401 156.7 573.788 156.626C576.159 156.688 578.52 156.282 580.735 155.43C582.95 154.579 584.974 153.3 586.693 151.665C589.841 147.964 591.569 143.264 591.569 138.406C591.569 133.548 589.841 128.849 586.693 125.147C584.974 123.514 582.95 122.234 580.735 121.383C578.52 120.532 576.159 120.125 573.788 120.186C571.401 120.113 569.024 120.514 566.793 121.365C564.562 122.217 562.522 123.503 560.792 125.147C557.645 128.849 555.917 133.548 555.917 138.406C555.917 143.264 557.645 147.964 560.792 151.665Z" fill="#101828"/>
<path d="M643.548 90.06C641.163 92.1472 638.1 93.2973 634.93 93.2973C631.759 93.2973 628.697 92.1472 626.311 90.06C625.23 89.0399 624.368 87.8096 623.779 86.4449C623.191 85.0802 622.886 83.6091 622.886 82.1226C622.886 80.6362 623.191 79.1659 623.779 77.8003C624.368 76.4356 625.23 75.2053 626.311 74.1852C628.722 72.1503 631.775 71.0346 634.93 71.0346C638.085 71.0346 641.138 72.1503 643.548 74.1852C644.63 75.2053 645.492 76.4356 646.081 77.8003C646.67 79.1659 646.973 80.6362 646.973 82.1226C646.973 83.6091 646.67 85.0802 646.081 86.4449C645.492 87.8096 644.63 89.0399 643.548 90.06ZM645.444 173.223C640.079 173.486 634.779 171.963 630.372 168.893C628.565 167.513 627.113 165.72 626.14 163.664C625.166 161.609 624.699 159.35 624.777 157.077V108.009C624.734 107.656 624.771 107.296 624.887 106.959C625.003 106.621 625.194 106.316 625.447 106.063C625.699 105.81 626.005 105.619 626.343 105.504C626.68 105.387 627.04 105.35 627.394 105.394H642.556C644.27 105.394 645.083 106.296 645.083 108.009V150.583C645.083 154.01 646.617 155.724 649.685 155.724C651.054 155.774 652.422 155.621 653.746 155.273C655.551 155.273 656.544 155.814 656.634 157.438L657.988 168.713C658.053 169.042 658.046 169.38 657.97 169.707C657.893 170.032 657.747 170.339 657.541 170.603C657.336 170.868 657.076 171.087 656.78 171.243C656.483 171.399 656.157 171.49 655.822 171.509C652.472 172.612 648.971 173.19 645.444 173.223Z" fill="#101828"/>
<path d="M713.76 103.229C718.496 103.042 723.221 103.808 727.655 105.481C732.088 107.155 736.141 109.702 739.571 112.97C745.953 119.816 749.501 128.824 749.501 138.181C749.501 147.537 745.953 156.546 739.571 163.391C736.158 166.69 732.11 169.261 727.674 170.951C723.237 172.641 718.504 173.414 713.76 173.223C707.002 173.373 700.379 171.315 694.899 167.36V199.921C694.899 201.635 693.996 202.447 692.282 202.447H677.12C676.774 202.512 676.418 202.491 676.081 202.387C675.746 202.283 675.44 202.099 675.191 201.85C674.942 201.601 674.757 201.296 674.654 200.959C674.549 200.624 674.529 200.268 674.593 199.921V125.959C674.7 125.235 674.635 124.498 674.406 123.803C674.175 123.11 673.785 122.478 673.268 121.961C672.751 121.444 672.12 121.056 671.426 120.826C670.732 120.596 669.992 120.532 669.269 120.637H666.29C664.305 120.637 663.312 119.916 663.312 118.472V107.829C663.265 107.171 663.446 106.516 663.824 105.975C664.201 105.433 664.754 105.037 665.388 104.853C668.51 103.719 671.814 103.169 675.135 103.229C678.447 102.936 681.77 103.638 684.681 105.245C687.59 106.852 689.955 109.291 691.469 112.249C694.376 109.31 697.852 106.995 701.685 105.443C705.518 103.893 709.627 103.139 713.76 103.229ZM699.682 151.665C701.291 153.347 703.224 154.684 705.365 155.598C707.505 156.512 709.808 156.982 712.136 156.982C714.463 156.982 716.767 156.512 718.907 155.598C721.048 154.684 722.981 153.347 724.59 151.665C727.979 147.887 729.76 142.936 729.553 137.865C729.79 132.79 728.005 127.828 724.59 124.065C722.981 122.384 721.048 121.047 718.907 120.133C716.767 119.218 714.463 118.748 712.136 118.748C709.808 118.748 707.505 119.218 705.365 120.133C703.224 121.047 701.291 122.384 699.682 124.065C696.399 127.895 694.689 132.826 694.899 137.865C694.715 142.901 696.422 147.823 699.682 151.665Z" fill="#101828"/>
<path d="M792.094 173.223C783.993 173.555 775.96 171.619 768.901 167.63C766.069 165.926 763.658 163.605 761.845 160.841C760.032 158.078 758.866 154.941 758.432 151.665C758.432 149.861 759.064 148.959 761.049 148.959H774.316C774.947 148.985 775.559 149.182 776.084 149.533C776.61 149.883 777.028 150.371 777.294 150.944C779.189 155.814 784.153 158.25 792.094 158.25C794.865 158.377 797.623 157.819 800.126 156.626C800.991 156.237 801.732 155.62 802.272 154.841C802.813 154.063 803.131 153.152 803.195 152.207C803.195 149.861 801.751 148.238 798.863 147.155C795.438 146.016 791.897 145.259 788.304 144.9C784.049 144.419 779.829 143.666 775.669 142.646C771.624 141.731 767.947 139.626 765.11 136.602C763.44 134.548 762.211 132.171 761.498 129.621C760.786 127.071 760.606 124.401 760.97 121.779C761.335 119.156 762.234 116.636 763.614 114.377C764.994 112.116 766.824 110.164 768.991 108.641C775.496 104.5 783.128 102.482 790.831 102.868C798.289 102.617 805.667 104.46 812.129 108.19C814.734 109.665 816.975 111.7 818.693 114.15C820.41 116.6 821.559 119.401 822.056 122.351C822.056 124.155 821.244 125.057 819.619 125.057H806.263C805.701 125.09 805.141 124.953 804.658 124.664C804.176 124.374 803.791 123.945 803.556 123.433C802.663 121.297 800.983 119.585 798.863 118.653C796.471 117.403 793.8 116.781 791.102 116.849C788.456 116.705 785.818 117.233 783.431 118.382C782.589 118.707 781.866 119.275 781.35 120.015C780.836 120.754 780.554 121.631 780.543 122.531C780.6 123.765 781.053 124.948 781.832 125.906C782.612 126.864 783.678 127.545 784.875 127.853C788.34 129.159 791.944 130.067 795.614 130.559C799.835 131.115 804.022 131.898 808.158 132.904C812.203 133.82 815.881 135.924 818.717 138.947C820.235 140.613 821.406 142.563 822.165 144.684C822.924 146.805 823.256 149.055 823.139 151.305C823.217 154.423 822.485 157.507 821.014 160.259C819.543 163.009 817.383 165.331 814.746 166.999C808.004 171.326 800.103 173.496 792.094 173.223Z" fill="#101828"/>
<path d="M918.53 168.713C918.584 169.033 918.566 169.36 918.494 169.675C918.412 169.991 918.277 170.287 918.078 170.547C917.889 170.808 917.645 171.027 917.365 171.192C917.086 171.357 916.779 171.465 916.454 171.509C913.16 172.584 909.722 173.162 906.256 173.223C902.827 173.578 899.361 173.042 896.203 171.668C893.035 170.293 890.282 168.126 888.207 165.375C881.835 170.853 873.587 173.664 865.194 173.223C861.295 173.402 857.406 172.764 853.769 171.351C850.132 169.938 846.829 167.779 844.076 165.015C841.342 162.118 839.223 158.7 837.842 154.965C836.462 151.23 835.851 147.255 836.044 143.277V108.009C836.044 106.296 836.856 105.394 838.571 105.394H853.733C855.447 105.394 856.259 106.296 856.259 108.009V140.571C856.097 144.628 857.478 148.595 860.14 151.665C861.467 153.072 863.082 154.178 864.869 154.91C866.656 155.641 868.587 155.98 870.518 155.905C872.495 155.991 874.471 155.685 876.33 155.004C878.189 154.323 879.895 153.28 881.348 151.936C882.72 150.52 883.794 148.837 884.489 146.99C885.193 145.144 885.499 143.174 885.409 141.202V108.009C885.409 106.296 886.221 105.394 887.936 105.394H903.278C904.993 105.394 905.805 106.296 905.805 108.009V150.493C905.805 154.01 907.339 155.724 910.317 155.724C911.716 155.778 913.115 155.627 914.469 155.273C914.812 155.178 915.173 155.16 915.515 155.224C915.867 155.286 916.192 155.427 916.481 155.635C916.77 155.843 917.004 156.114 917.176 156.426C917.338 156.738 917.429 157.084 917.447 157.438L918.53 168.713Z" fill="#101828"/>
<path d="M1061.93 168.713C1062.01 169.036 1062.02 169.373 1061.96 169.7C1061.89 170.025 1061.75 170.334 1061.55 170.601C1061.35 170.868 1061.1 171.088 1060.8 171.245C1060.51 171.402 1060.19 171.493 1059.86 171.509C1056.5 172.599 1053.01 173.178 1049.48 173.223C1044.11 173.5 1038.81 171.976 1034.41 168.893C1032.5 167.573 1030.96 165.804 1029.9 163.743C1028.85 161.682 1028.31 159.392 1028.36 157.077V135.881C1028.55 131.836 1027.2 127.87 1024.57 124.786C1023.31 123.377 1021.74 122.265 1019.99 121.532C1018.24 120.8 1016.36 120.463 1014.46 120.547C1012.76 120.483 1011.06 120.807 1009.49 121.494C1007.93 122.181 1006.55 123.215 1005.44 124.516C1003.05 127.538 1001.84 131.316 1002.01 135.159V168.442C1002.01 170.156 1001.2 171.058 999.481 171.058H984.229C983.877 171.102 983.516 171.064 983.182 170.949C982.839 170.832 982.533 170.641 982.28 170.389C982.027 170.137 981.838 169.83 981.72 169.493C981.603 169.156 981.567 168.797 981.612 168.442V135.881C981.811 131.88 980.556 127.942 978.092 124.786C976.991 123.46 975.611 122.393 974.049 121.661C972.497 120.929 970.791 120.548 969.068 120.547C967.227 120.473 965.395 120.788 963.68 121.472C961.965 122.156 960.422 123.193 959.141 124.516C956.56 127.442 955.233 131.264 955.441 135.159V168.442C955.486 168.797 955.45 169.156 955.332 169.493C955.215 169.83 955.025 170.137 954.773 170.389C954.52 170.641 954.213 170.832 953.879 170.949C953.536 171.064 953.175 171.102 952.823 171.058H938.113C936.398 171.058 935.586 170.156 935.586 168.442V125.959C935.695 125.235 935.631 124.498 935.397 123.803C935.171 123.11 934.783 122.478 934.26 121.961C933.745 121.444 933.114 121.056 932.419 120.826C931.724 120.596 930.984 120.532 930.262 120.637H927.284C925.298 120.637 924.305 119.916 924.305 118.472V107.829C924.26 107.171 924.441 106.516 924.82 105.975C925.199 105.433 925.749 105.037 926.381 104.853C929.504 103.719 932.807 103.169 936.128 103.229C939.313 102.957 942.517 103.592 945.36 105.061C948.203 106.529 950.567 108.771 952.192 111.527C955.233 108.644 958.843 106.417 962.787 104.99C966.73 103.562 970.927 102.963 975.114 103.229C979.184 103.031 983.236 103.793 986.955 105.454C990.673 107.116 993.94 109.629 996.503 112.79C999.49 109.546 1003.16 107.006 1007.25 105.351C1011.34 103.698 1015.74 102.974 1020.15 103.229C1024.08 103.045 1028.02 103.679 1031.7 105.092C1035.38 106.505 1038.73 108.665 1041.54 111.437C1044.28 114.328 1046.4 117.745 1047.78 121.482C1049.16 125.218 1049.78 129.197 1049.57 133.175V150.583C1049.57 154.01 1051.1 155.724 1053.99 155.724C1055.39 155.789 1056.79 155.638 1058.14 155.273C1060.01 155.273 1061 155.995 1061.12 157.438L1061.93 168.713Z" fill="#101828"/>
<path d="M3.70011 93.668C10.3582 66.9215 25.7783 43.1697 47.5049 26.1957C69.2318 9.22131 96.016 0 123.593 0C151.169 0 177.954 9.22131 199.68 26.1957C221.407 43.1697 236.827 66.9215 243.485 93.668H232.656C214.387 93.3992 196.493 98.8562 181.486 109.272C180.62 109.899 179.715 110.472 178.778 110.986H177.515C176.578 110.472 175.674 109.899 174.808 109.272C159.668 99.097 141.837 93.6626 123.593 93.6626C105.348 93.6626 87.5175 99.097 72.3778 109.272C71.5114 109.899 70.6071 110.472 69.6704 110.986H68.4069C67.4701 110.472 66.5659 109.899 65.6995 109.272C50.6924 98.8562 32.7983 93.3992 14.5297 93.668H3.70011ZM213.162 150.222C218.722 145.895 225.612 143.631 232.656 143.818H247.185V114.865H232.656C220.249 114.715 208.126 118.574 198.091 125.869C192.445 130.03 185.614 132.275 178.598 132.275C171.582 132.275 164.751 130.03 159.105 125.869C148.816 118.711 136.58 114.873 124.044 114.873C111.508 114.873 99.2721 118.711 88.9831 125.869C83.3364 130.03 76.5056 132.275 69.4899 132.275C62.4741 132.275 55.6433 130.03 49.9966 125.869C39.8385 118.481 27.5415 114.616 14.9809 114.865H0V143.818H14.5297C21.5735 143.631 28.4638 145.895 34.023 150.222C44.293 157.386 56.5151 161.226 69.0386 161.226C81.5622 161.226 93.7843 157.386 104.054 150.222C109.621 145.909 116.506 143.647 123.548 143.818C130.594 143.616 137.489 145.882 143.041 150.222C153.33 157.381 165.565 161.218 178.102 161.218C190.638 161.218 202.873 157.381 213.162 150.222ZM213.162 201.996C218.722 197.669 225.612 195.405 232.656 195.592H247.185V166.638H232.656C220.249 166.488 208.126 170.348 198.091 177.642C192.445 181.803 185.614 184.048 178.598 184.048C171.582 184.048 164.751 181.803 159.105 177.642C148.816 170.484 136.58 166.647 124.044 166.647C111.508 166.647 99.2721 170.484 88.9831 177.642C83.3364 181.803 76.5056 184.048 69.4899 184.048C62.4741 184.048 55.6433 181.803 49.9966 177.642C39.8385 170.255 27.5415 166.39 14.9809 166.638H0V195.592H14.5297C21.5735 195.405 28.4638 197.669 34.023 201.996C44.293 209.159 56.5151 213 69.0386 213C81.5622 213 93.7843 209.159 104.054 201.996C109.621 197.683 116.506 195.42 123.548 195.592C130.594 195.39 137.489 197.656 143.041 201.996C153.33 209.155 165.565 212.992 178.102 212.992C190.638 212.992 202.873 209.155 213.162 201.996Z" fill="#101828"/>
</svg>
